<svg xmlns="http://www.w3.org/2000/svg" viewBox="0 0 488 502.4"><defs><style>.cls-1{fill:#dbab56;}.cls-2{fill:#efb30c;}.cls-3{fill:#e5a300;}.cls-4{fill:#f7d27f;}.cls-5{fill:#efc273;}.cls-6{fill:#eac06c;}.cls-7{fill:#ffe0a1;}.cls-8{fill:#f9e310;}.cls-9{fill:#f7c011;}</style></defs><title>Asset 2</title><g id="Layer_2" data-name="Layer 2"><g id="Layer_1-2" data-name="Layer 1"><path class="cls-1" d="M244,502.4c-134.4,0-244-109.6-244-244s109.6-244,244-244S488,124,488,258.4,378.4,502.4,244,502.4Z"/><circle class="cls-2" cx="244" cy="244" r="228.8"/><path class="cls-3" d="M42.4,271.2c0-126.4,102.4-228.8,228.8-228.8,56,0,108,20,147.2,53.6C376.8,47.2,314.4,15.2,244,15.2,117.6,15.2,15.2,117.6,15.2,244c0,70.4,31.2,132.8,80.8,174.4A230.45,230.45,0,0,1,42.4,271.2Z"/><path class="cls-3" d="M405.6,82.4c89.6,89.6,89.6,234.4,0,323.2a227.9,227.9,0,0,1-323.2,0"/><path class="cls-4" d="M244,488C109.6,488,0,378.4,0,244S109.6,0,244,0,488,109.6,488,244,378.4,488,244,488Zm0-456.8c-117.6,0-213.6,96-213.6,213.6s96,213.6,213.6,213.6,213.6-96,213.6-213.6C457.6,126.4,361.6,31.2,244,31.2Z"/><path class="cls-5" d="M488,244c0-61.6-23.2-117.6-60.8-160.8C384,45.6,328,22.4,266.4,22.4a246,246,0,0,0-113.6,28c28-12.8,58.4-20.8,91.2-20.8,64.8,0,122.4,28.8,161.6,74.4,45.6,39.2,74.4,96.8,74.4,161.6a206.23,206.23,0,0,1-20.8,91.2C477.6,324,488,285.6,488,244Z"/><path class="cls-6" d="M23.2,267.2C23.2,328.8,46.4,384.8,84,428c43.2,37.6,99.2,60.8,160.8,60.8a246,246,0,0,0,113.6-28c-28,12.8-58.4,20.8-91.2,20.8-64.8,0-122.4-28.8-161.6-74.4C60,366.4,30.4,308.8,30.4,244a206.23,206.23,0,0,1,20.8-91.2C32.8,187.2,23.2,225.6,23.2,267.2Z"/><path class="cls-7" d="M245.6,23.2a1.72,1.72,0,0,1-1.6,1.6h0a1.72,1.72,0,0,1-1.6-1.6V7.2A1.72,1.72,0,0,1,244,5.6h0a1.72,1.72,0,0,1,1.6,1.6Z"/><path class="cls-7" d="M245.6,481.6a1.72,1.72,0,0,1-1.6,1.6h0a1.72,1.72,0,0,1-1.6-1.6v-16A1.72,1.72,0,0,1,244,464h0a1.72,1.72,0,0,1,1.6,1.6Z"/><path class="cls-7" d="M401.6,88.8c-.8.8-2.4.8-2.4,0h0a1.5,1.5,0,0,1,0-2.4l11.2-11.2c.8-.8,2.4-.8,2.4,0h0c.8.8.8,2.4,0,2.4Z"/><path class="cls-7" d="M77.6,412.8c-.8.8-2.4.8-2.4,0h0c-.8-.8-.8-2.4,0-2.4l11.2-11.2c.8-.8,2.4-.8,2.4,0h0c.8.8.8,2.4,0,2.4Z"/><path class="cls-7" d="M465.6,246.4a1.72,1.72,0,0,1-1.6-1.6h0a1.72,1.72,0,0,1,1.6-1.6h16a1.72,1.72,0,0,1,1.6,1.6h0a1.72,1.72,0,0,1-1.6,1.6Z"/><path class="cls-7" d="M7.2,246.4a1.72,1.72,0,0,1-1.6-1.6h0a1.72,1.72,0,0,1,1.6-1.6h16a1.72,1.72,0,0,1,1.6,1.6h0a1.72,1.72,0,0,1-1.6,1.6Z"/><path class="cls-7" d="M399.2,402.4a1.5,1.5,0,0,1,0-2.4h0a1.5,1.5,0,0,1,2.4,0l11.2,11.2c.8.8.8,2.4,0,2.4h0c-.8.8-2.4.8-2.4,0Z"/><path class="cls-7" d="M75.2,77.6a1.5,1.5,0,0,1,0-2.4h0c.8-.8,2.4-.8,2.4,0L88.8,86.4c.8.8.8,2.4,0,2.4h0c-.8.8-2.4.8-2.4,0Z"/><path class="cls-7" d="M135.2,51.2a1.53,1.53,0,0,1-.8,2.4h0a1.53,1.53,0,0,1-2.4-.8l-8-13.6a1.53,1.53,0,0,1,.8-2.4h0a1.53,1.53,0,0,1,2.4.8Z"/><path class="cls-7" d="M364,448.8a1.53,1.53,0,0,1-.8,2.4h0a1.53,1.53,0,0,1-2.4-.8l-8-13.6a1.53,1.53,0,0,1,.8-2.4h0a1.53,1.53,0,0,1,2.4.8Z"/><path class="cls-7" d="M303.2,31.2c0,.8-1.6,1.6-2.4,1.6h0c-.8,0-1.6-1.6-1.6-2.4l4-15.2c0-.8,1.6-1.6,2.4-1.6h0c.8,0,1.6,1.6,1.6,2.4Z"/><path class="cls-7" d="M184.8,473.6c0,.8-1.6,1.6-2.4,1.6h0c-.8,0-1.6-1.6-1.6-2.4l4-15.2c0-.8,1.6-1.6,2.4-1.6h0c.8,0,1.6,1.6,1.6,2.4Z"/><path class="cls-7" d="M436.8,135.2a1.53,1.53,0,0,1-2.4-.8h0a1.53,1.53,0,0,1,.8-2.4l13.6-8a1.53,1.53,0,0,1,2.4.8h0a1.53,1.53,0,0,1-.8,2.4Z"/><path class="cls-7" d="M40,364.8a1.53,1.53,0,0,1-2.4-.8h0a1.53,1.53,0,0,1,.8-2.4l13.6-8a1.53,1.53,0,0,1,2.4.8h0a1.53,1.53,0,0,1-.8,2.4Z"/><path class="cls-7" d="M457.6,303.2c-.8,0-1.6-1.6-1.6-2.4h0c0-.8,1.6-1.6,2.4-1.6l15.2,4c.8,0,1.6,1.6,1.6,2.4h0c0,.8-1.6,1.6-2.4,1.6Z"/><path class="cls-7" d="M14.4,184.8c-.8,0-1.6-1.6-1.6-2.4h0c0-.8,1.6-1.6,2.4-1.6l15.2,4c.8,0,1.6,1.6,1.6,2.4h0c0,.8-1.6,1.6-2.4,1.6Z"/><path class="cls-7" d="M53.6,132c.8.8,1.6,1.6.8,2.4h0c-.8.8-1.6,1.6-2.4.8l-13.6-8c-.8-.8-1.6-1.6-.8-2.4h0c.8-.8,1.6-1.6,2.4-.8Z"/><path class="cls-7" d="M450.4,360.8c.8.8,1.6,1.6.8,2.4h0c-.8.8-1.6,1.6-2.4.8l-13.6-8c-.8-.8-1.6-1.6-.8-2.4h0c.8-.8,1.6-1.6,2.4-.8Z"/><path class="cls-7" d="M188.8,29.6c0,.8,0,2.4-1.6,2.4h0c-.8,0-2.4,0-2.4-1.6l-4-15.2c0-.8,0-2.4,1.6-2.4h0c.8,0,2.4,0,2.4,1.6Z"/><path class="cls-7" d="M307.2,472.8c0,.8,0,2.4-1.6,2.4h0c-.8,0-2.4,0-2.4-1.6l-4-15.2c0-.8,0-2.4,1.6-2.4h0c.8,0,2.4,0,2.4,1.6Z"/><path class="cls-7" d="M356,53.6c-.8.8-1.6,1.6-2.4.8h0c-.8-.8-1.6-1.6-.8-2.4l8-13.6c.8-.8,1.6-1.6,2.4-.8h0c.8.8,1.6,1.6.8,2.4Z"/><path class="cls-7" d="M127.2,450.4c-.8.8-1.6,1.6-2.4.8h0c-.8-.8-1.6-1.6-.8-2.4l8-13.6c.8-.8,1.6-1.6,2.4-.8h0c.8.8,1.6,1.6.8,2.4Z"/><path class="cls-7" d="M458.4,188.8c-.8,0-2.4,0-2.4-1.6h0c0-.8,0-2.4,1.6-2.4l15.2-4c.8,0,2.4,0,2.4,1.6h0c0,.8,0,2.4-1.6,2.4Z"/><path class="cls-7" d="M15.2,307.2c-.8,0-2.4,0-2.4-1.6h0c0-.8,0-2.4,1.6-2.4l15.2-4c.8,0,2.4,0,2.4,1.6h0c0,.8,0,2.4-1.6,2.4Z"/><path d="M296.28,387.17c0-8.28-6.4-15-14.27-15H208.26c-7.87,0-14.27,6.74-14.27,15s6.4,15,14.27,15H282C289.88,402.19,296.28,395.45,296.28,387.17Z"/><path d="M215.92,416.62c-8.68,0-15.74,6.74-15.74,15s7.06,15,15.74,15h59.22c8.68,0,15.74-6.74,15.74-15s-7.06-15-15.74-15Z"/><path d="M245.13,114.31c-53.92,0-97.78,44.11-97.78,98.34,0,24.59,12.06,48.93,23.72,72.48,11.42,23.05,22.2,44.82,22.2,66.06a6,6,0,0,0,5.95,6h91.84a6,6,0,0,0,5.95-6c0-22.12,11.42-45,22.46-67.12,11.53-23.1,23.46-47,23.46-71.41C342.92,158.42,299.05,114.31,245.13,114.31Z"/><path d="M131.28,126.76a5.92,5.92,0,0,0-8.12,2.19l-11.81,20.6a6,6,0,0,0,2.18,8.17L134.72,170a5.93,5.93,0,0,0,8.39-2.72,113,113,0,0,1,11.28-19.49,6,6,0,0,0-1.85-8.68Z"/><path d="M233.95,101.88c1.33-.14,2.65-.32,4-.5a53.54,53.54,0,0,1,7.23-.67,53.52,53.52,0,0,1,7.23.67c1.31.18,2.63.36,4,.5a5.9,5.9,0,0,0,4.6-1.5,6,6,0,0,0,2-4.44V71a6,6,0,0,0-5.95-6H233.32a6,6,0,0,0-5.95,6v25a6,6,0,0,0,2,4.44,5.89,5.89,0,0,0,4.6,1.5Z"/><path d="M175.08,123.24a5.92,5.92,0,0,0,4.72-1,112,112,0,0,1,19.38-11.35,6,6,0,0,0,2.7-8.44L189.67,81.14a5.93,5.93,0,0,0-8.12-2.19L161.06,90.82A6,6,0,0,0,158.88,99l12.3,21.39A6,6,0,0,0,175.08,123.24Z"/><path d="M367.12,129a5.92,5.92,0,0,0-8.12-2.19l-21.27,12.36a6,6,0,0,0-1.85,8.68,113,113,0,0,1,11.31,19.49,5.93,5.93,0,0,0,8.39,2.72l21.18-12.29a6,6,0,0,0,2.18-8.17Z"/><path d="M291.09,110.9a113,113,0,0,1,19.37,11.33,5.93,5.93,0,0,0,3.48,1.13,5.92,5.92,0,0,0,5.15-3L331.36,99a6,6,0,0,0-2.17-8.17L308.75,79a5.93,5.93,0,0,0-8.12,2.19L288.4,102.46a6,6,0,0,0,2.69,8.43Z"/><path d="M97.47,201.62v23.75a6,6,0,0,0,5.95,6h24.87a5.93,5.93,0,0,0,4.44-2,6,6,0,0,0,1.46-4.67c-.14-1.19-.31-2.38-.48-3.57a55.14,55.14,0,0,1-.73-7.6,54.43,54.43,0,0,1,.67-7.27c.18-1.32.36-2.65.5-4a6,6,0,0,0-1.5-4.63,5.93,5.93,0,0,0-4.42-2H103.41A6,6,0,0,0,97.47,201.62Z"/><path d="M386.85,195.64H362a5.93,5.93,0,0,0-4.42,2,6,6,0,0,0-1.49,4.63c.14,1.34.32,2.66.5,4a54.52,54.52,0,0,1,.67,7.27,55.24,55.24,0,0,1-.73,7.6c-.17,1.19-.33,2.38-.48,3.57a6,6,0,0,0,1.46,4.67,5.93,5.93,0,0,0,4.44,2h24.87a6,6,0,0,0,5.95-6V201.62A6,6,0,0,0,386.85,195.64Z"/><path d="M339.66,289,359,300.21a5.93,5.93,0,0,0,8.12-2.19l11.81-20.58a6,6,0,0,0-2.18-8.17l-21.45-12.43a5.93,5.93,0,0,0-8.48,2.93c-2.85,7.08-6.06,14.28-9.52,21.4A6,6,0,0,0,339.66,289Z"/><path d="M139.8,256.42a5.91,5.91,0,0,0-4.92.47l-21.36,12.39a6,6,0,0,0-2.18,8.17L123.15,298a5.92,5.92,0,0,0,8.12,2.19l19.17-11.11a6,6,0,0,0,2.38-7.79c-3.52-7.31-6.7-14.53-9.45-21.46A6,6,0,0,0,139.8,256.42Z"/><path class="cls-8" d="M280.3,254.73a33.07,33.07,0,0,0,11.84-25.39v-1c0-17.58-13.26-31.73-29.83-32.22V182a7.11,7.11,0,1,0-14.2,0v14.16h-6.16V182a7.11,7.11,0,1,0-14.2,0v14.16h-17a7.33,7.33,0,0,0,0,14.65h17.52v.49a4.52,4.52,0,0,0-.47,2.44v85.93h-17a7.33,7.33,0,0,0,0,14.65h17v16.11a7.11,7.11,0,1,0,14.2,0V314.3h6.16v16.11a7.11,7.11,0,1,0,14.2,0v-16.6c16.57-.49,29.83-14.65,29.83-32.22v-1A34.1,34.1,0,0,0,280.3,254.73ZM278.4,281.1c0,9.76-7.58,18.06-17.52,18.06H241.94V213.24a4.52,4.52,0,0,0-.47-2.44v-.49h19.41a17.75,17.75,0,0,1,17.52,18.06v1c0,9.76-7.58,18.06-17.52,18.06a7.4,7.4,0,0,0-7.1,7.32v.49h0a7.4,7.4,0,0,0,7.1,7.32,17.75,17.75,0,0,1,17.52,18.06Z"/><path class="cls-9" d="M278.4,228.39v1c0,9.76-7.58,18.06-17.52,18.06a7.4,7.4,0,0,0-7.1,7.32v.49h0a7.4,7.4,0,0,0,7.1,7.32,17.75,17.75,0,0,1,17.52,18.06v1c0,9.76-7.58,18.06-17.52,18.06H241.94V246.46l-14.2,14.65v38.08h-17a7.33,7.33,0,0,0,0,14.65h17v16.11a7.11,7.11,0,1,0,14.2,0V313.83h6.16v16.11a7.11,7.11,0,1,0,14.2,0v-16.6c16.57-.49,29.83-14.65,29.83-32.22v-1a33.07,33.07,0,0,0-11.84-25.39,33.07,33.07,0,0,0,11.84-25.39v-1A32.15,32.15,0,0,0,282.19,205l-9.94,10.25A18.17,18.17,0,0,1,278.4,228.39Z"/></g></g></svg>